<svg width="210" height="40" viewBox="0 0 210 40" fill="none" xmlns="http://www.w3.org/2000/svg">
<path d="M20.1759 14.8211H12.2628C12.0587 14.8211 11.8931 14.9867 11.8931 15.191V19.0597C11.8931 19.2639 12.0587 19.4301 12.2628 19.4301H15.3498V24.2367C15.3498 24.2367 14.6565 24.473 12.7404 24.473C10.4796 24.473 7.32144 23.6468 7.32144 16.7021C7.32144 9.75588 10.61 8.84196 13.6974 8.84196C16.3699 8.84196 17.5213 9.31255 18.254 9.53922C18.4841 9.60981 18.697 9.38059 18.697 9.17628L19.5798 5.43824C19.5798 5.34275 19.5475 5.22765 19.4385 5.14941C19.1409 4.93726 17.3258 3.92157 12.7404 3.92157C7.45777 3.92157 2.03918 6.16902 2.03918 16.973C2.03918 27.7773 8.24301 29.3873 13.471 29.3873C17.7995 29.3873 20.4255 27.5375 20.4255 27.5375C20.5338 27.4776 20.5454 27.3264 20.5454 27.257V15.191C20.5454 14.9868 20.38 14.8211 20.1759 14.8211Z" fill="white"/>
<path d="M60.9559 5.21608C60.9559 5.0102 60.7927 4.84412 60.5886 4.84412H56.1331C55.9296 4.84412 55.7641 5.0102 55.7641 5.21608C55.7641 5.21706 55.7653 13.8264 55.7653 13.8264H48.8204V5.21608C48.8204 5.0102 48.6564 4.84412 48.4527 4.84412H43.9974C43.7947 4.84412 43.6294 5.0102 43.6294 5.21608V28.5304C43.6294 28.7361 43.7947 28.9035 43.9974 28.9035H48.4527C48.6564 28.9035 48.8204 28.7361 48.8204 28.5304V18.5581H55.7653C55.7653 18.5581 55.7531 28.5296 55.7531 28.5304C55.7531 28.7361 55.9184 28.9035 56.1221 28.9035H60.5882C60.7923 28.9035 60.9555 28.7361 60.9559 28.5304V5.21608Z" fill="white"/>
<path d="M28.5835 8.27549C28.5835 6.67118 27.2972 5.37471 25.7104 5.37471C24.1251 5.37471 22.8378 6.67118 22.8378 8.27549C22.8378 9.87814 24.1251 11.1781 25.7104 11.1781C27.2972 11.1781 28.5835 9.87814 28.5835 8.27549Z" fill="white"/>
<path d="M28.2649 23.6124C28.2649 23.015 28.2649 12.8504 28.2649 12.8504C28.2649 12.6461 28.1 12.479 27.8962 12.479H23.4549C23.2511 12.479 23.0688 12.6892 23.0688 12.8935C23.0688 12.8935 23.0688 25.8435 23.0688 28.3121C23.0688 28.7653 23.3511 28.9 23.7166 28.9C23.7166 28.9 25.6123 28.9 27.7182 28.9C28.1572 28.9 28.2649 28.6845 28.2649 28.3049C28.2649 27.4784 28.2649 24.2408 28.2649 23.6124Z" fill="white"/>
<path d="M77.8886 12.5141H73.4672C73.2645 12.5141 73.0994 12.6812 73.0994 12.8869V24.3186C73.0994 24.3186 71.9762 25.1404 70.3819 25.1404C68.7878 25.1404 68.3647 24.4171 68.3647 22.8561C68.3647 21.2932 68.3647 12.8869 68.3647 12.8869C68.3647 12.6812 68.2 12.5141 67.997 12.5141H63.5098C63.3072 12.5141 63.1413 12.6812 63.1413 12.8869C63.1413 12.8869 63.1413 18.9747 63.1413 23.611C63.1413 28.2475 65.7255 29.3817 69.2804 29.3817C72.1966 29.3817 74.548 27.7706 74.548 27.7706C74.548 27.7706 74.66 28.6196 74.7106 28.7204C74.7613 28.8208 74.8933 28.9222 75.0359 28.9222L77.8906 28.9096C78.0931 28.9096 78.259 28.7422 78.259 28.5375L78.2576 12.8869C78.2576 12.6812 78.0923 12.5141 77.8886 12.5141Z" fill="white"/>
<path d="M88.2288 25.1263C86.6953 25.0796 85.6551 24.3837 85.6551 24.3837V17.0005C85.6551 17.0005 86.6813 16.3716 87.9404 16.2591C89.5325 16.1165 91.0666 16.5974 91.0666 20.3955C91.0666 24.4006 90.3743 25.1909 88.2288 25.1263ZM89.9727 11.9904C87.4615 11.9904 85.7535 13.1107 85.7535 13.1107V5.21608C85.7535 5.0102 85.589 4.84412 85.3858 4.84412H80.9178C80.7147 4.84412 80.5496 5.0102 80.5496 5.21608V28.5304C80.5496 28.7361 80.7147 28.9035 80.9184 28.9035C80.9188 28.9035 84.0174 28.9035 84.0184 28.9035C84.158 28.9035 84.2637 28.8316 84.3417 28.7055C84.4188 28.5802 84.53 27.6306 84.53 27.6306C84.53 27.6306 86.357 29.362 89.8157 29.362C93.8761 29.362 96.2047 27.3023 96.2047 20.116C96.2047 12.9294 92.4857 11.9904 89.9727 11.9904Z" fill="white"/>
<path d="M41.0702 12.4769H37.728C37.728 12.4769 37.7229 8.06255 37.7229 8.06157C37.7229 7.89451 37.6368 7.81098 37.4437 7.81098H32.8892C32.7121 7.81098 32.617 7.88883 32.617 8.05902V12.6217C32.617 12.6217 30.3347 13.1727 30.1804 13.2172C30.0266 13.2618 29.9135 13.4035 29.9135 13.5726V16.4398C29.9135 16.646 30.0782 16.8123 30.2819 16.8123H32.617C32.617 16.8123 32.617 19.8111 32.617 23.71C32.617 28.8333 36.2108 29.3367 38.6359 29.3367C39.7439 29.3367 41.0694 28.9808 41.2882 28.9C41.4206 28.8513 41.4974 28.7143 41.4974 28.5657L41.5011 25.4115C41.5011 25.2059 41.3274 25.0395 41.1317 25.0395C40.937 25.0395 40.4388 25.1187 39.9259 25.1187C38.2843 25.1187 37.728 24.3553 37.728 23.3673C37.728 22.3801 37.7278 16.8123 37.7278 16.8123H41.0702C41.2739 16.8123 41.4388 16.646 41.4388 16.4398V12.8484C41.4388 12.6426 41.2739 12.4769 41.0702 12.4769Z" fill="white"/>
<path d="M122.981 17.5094C122.981 19.1742 122.681 20.7279 122.082 22.1706C121.505 23.5912 120.706 24.8231 119.685 25.8663C118.664 26.9095 117.443 27.7307 116.022 28.33C114.624 28.9293 113.115 29.229 111.494 29.229C109.807 29.229 108.22 28.9182 106.733 28.2967C105.246 27.6752 103.959 26.8318 102.871 25.7664C101.783 24.6788 100.918 23.4025 100.274 21.9376C99.6527 20.4504 99.3419 18.8745 99.3419 17.2098C99.3419 15.5451 99.6527 13.9803 100.274 12.5153C100.918 11.0282 101.772 9.75192 102.838 8.68651C103.925 7.5989 105.213 6.74435 106.7 6.12286C108.187 5.50137 109.774 5.19062 111.461 5.19062C113.303 5.19062 115.046 5.54576 116.688 6.25603C118.331 6.96631 119.718 7.95403 120.85 9.21921L118.453 11.5498C117.587 10.551 116.533 9.78521 115.29 9.2525C114.069 8.6976 112.793 8.42015 111.461 8.42015C110.262 8.42015 109.13 8.64211 108.065 9.08603C107.022 9.52996 106.112 10.1514 105.335 10.9505C104.58 11.7274 103.981 12.6596 103.537 13.7472C103.115 14.8126 102.904 15.9668 102.904 17.2098C102.904 18.4528 103.126 19.6181 103.57 20.7057C104.014 21.7711 104.613 22.7033 105.368 23.5024C106.145 24.2792 107.055 24.9007 108.098 25.3669C109.164 25.8108 110.307 26.0327 111.528 26.0327C113.592 26.0327 115.345 25.4112 116.788 24.1683C118.253 22.9031 119.096 21.305 119.318 19.3739H111.561V16.3109H122.981V17.5094Z" fill="white"/>
<path d="M126.245 28.8627V11.916H129.574V14.0802C130.085 13.2589 130.74 12.6374 131.539 12.2157C132.338 11.7718 133.237 11.5498 134.235 11.5498C134.591 11.5498 134.901 11.572 135.168 11.6164C135.434 11.6608 135.689 11.7274 135.933 11.8162V14.8126C135.623 14.7016 135.301 14.6129 134.968 14.5463C134.635 14.4797 134.302 14.4464 133.969 14.4464C132.992 14.4464 132.116 14.7127 131.339 15.2454C130.584 15.756 129.996 16.5217 129.574 17.5427V28.8627H126.245Z" fill="white"/>
<path d="M143.245 29.1624C141.403 29.1624 139.905 28.6852 138.75 27.7307C137.596 26.7763 137.019 25.5333 137.019 24.0018C137.019 22.4037 137.63 21.1496 138.85 20.2396C140.071 19.3073 141.747 18.8412 143.878 18.8412C144.699 18.8412 145.498 18.93 146.275 19.1076C147.052 19.2629 147.795 19.4849 148.506 19.7734V17.9756C148.506 16.777 148.15 15.878 147.44 15.2787C146.73 14.6794 145.709 14.3798 144.377 14.3798C143.6 14.3798 142.79 14.5019 141.947 14.746C141.103 14.968 140.16 15.3231 139.117 15.8114L137.885 13.3144C139.15 12.7151 140.349 12.2823 141.481 12.0159C142.613 11.7274 143.733 11.5831 144.843 11.5831C147.041 11.5831 148.739 12.1158 149.937 13.1812C151.158 14.2244 151.768 15.7116 151.768 17.6426V28.8627H148.506V27.3978C147.751 27.9971 146.941 28.441 146.075 28.7296C145.21 29.0181 144.266 29.1624 143.245 29.1624ZM140.215 23.9352C140.215 24.7565 140.559 25.4223 141.248 25.9329C141.958 26.4434 142.879 26.6986 144.011 26.6986C144.899 26.6986 145.72 26.5654 146.475 26.2991C147.229 26.0327 147.906 25.6332 148.506 25.1005V22.1706C147.862 21.8155 147.185 21.5602 146.475 21.4049C145.764 21.2273 144.988 21.1385 144.144 21.1385C142.946 21.1385 141.991 21.3938 141.281 21.9043C140.571 22.4148 140.215 23.0918 140.215 23.9352Z" fill="white"/>
<path d="M155.605 35.7546V11.916H158.901V13.5474C159.589 12.926 160.377 12.4598 161.265 12.1491C162.153 11.8162 163.096 11.6497 164.095 11.6497C165.293 11.6497 166.414 11.8827 167.458 12.3489C168.501 12.7928 169.4 13.4032 170.154 14.18C170.931 14.9569 171.542 15.878 171.986 16.9434C172.429 18.0089 172.651 19.152 172.651 20.3727C172.651 21.5935 172.429 22.7477 171.986 23.8353C171.542 24.9007 170.931 25.8219 170.154 26.5987C169.4 27.3756 168.49 27.9971 167.424 28.4632C166.359 28.9071 165.227 29.1291 164.028 29.1291C163.096 29.1291 162.186 28.9848 161.298 28.6963C160.432 28.4077 159.644 27.9971 158.934 27.4644V35.7546H155.605ZM163.662 14.5463C162.708 14.5463 161.82 14.7238 160.998 15.079C160.177 15.4341 159.489 15.9335 158.934 16.5772V24.2349C159.467 24.8563 160.144 25.3447 160.965 25.6998C161.809 26.0549 162.708 26.2325 163.662 26.2325C165.282 26.2325 166.636 25.6776 167.724 24.5678C168.834 23.458 169.389 22.0707 169.389 20.406C169.389 18.7413 168.834 17.3541 167.724 16.2443C166.614 15.1123 165.26 14.5463 163.662 14.5463Z" fill="white"/>
<path d="M175.828 28.8627V5.55686L179.158 4.82439V13.614C179.824 12.9482 180.578 12.4487 181.422 12.1158C182.287 11.7607 183.231 11.5831 184.252 11.5831C186.183 11.5831 187.77 12.2046 189.013 13.4476C190.256 14.6683 190.877 16.2554 190.877 18.2086V28.8627H187.548V18.7746C187.548 17.4429 187.159 16.3996 186.383 15.645C185.628 14.8681 184.618 14.4797 183.353 14.4797C182.465 14.4797 181.655 14.6683 180.922 15.0457C180.212 15.423 179.624 15.9668 179.158 16.6771V28.8627H175.828Z" fill="white"/>
<path d="M193.121 26.6653L194.919 24.4679C195.806 25.156 196.705 25.6887 197.615 26.066C198.548 26.4212 199.491 26.5987 200.445 26.5987C201.644 26.5987 202.621 26.3657 203.375 25.8996C204.13 25.4334 204.507 24.8231 204.507 24.0684C204.507 23.4691 204.285 22.9919 203.841 22.6367C203.398 22.2816 202.709 22.0374 201.777 21.9043L198.714 21.4714C197.049 21.2273 195.784 20.7168 194.919 19.9399C194.075 19.1409 193.653 18.0865 193.653 16.777C193.653 15.2454 194.264 14.0136 195.485 13.0813C196.705 12.1269 198.304 11.6497 200.279 11.6497C201.522 11.6497 202.698 11.8273 203.808 12.1824C204.94 12.5375 206.039 13.0813 207.104 13.8138L205.406 16.0112C204.474 15.3897 203.564 14.9458 202.676 14.6794C201.811 14.3909 200.934 14.2466 200.046 14.2466C199.025 14.2466 198.204 14.4575 197.582 14.8792C196.961 15.3009 196.65 15.8558 196.65 16.5439C196.65 17.1654 196.861 17.6426 197.283 17.9756C197.726 18.2863 198.448 18.5194 199.447 18.6747L202.51 19.1076C204.174 19.3517 205.44 19.8733 206.305 20.6724C207.193 21.4714 207.637 22.5258 207.637 23.8353C207.637 24.59 207.448 25.3003 207.071 25.9662C206.716 26.6098 206.216 27.1647 205.573 27.6309C204.951 28.097 204.208 28.4743 203.342 28.7629C202.476 29.0292 201.544 29.1624 200.545 29.1624C199.08 29.1624 197.704 28.9515 196.417 28.5298C195.152 28.1081 194.053 27.4866 193.121 26.6653Z" fill="white"/>
</svg>
